<?xml version="1.0" encoding="UTF-8"?>
<!DOCTYPE svg PUBLIC "-//W3C//DTD SVG 1.1//EN" "http://www.w3.org/Graphics/SVG/1.1/DTD/svg11.dtd">
<!-- Creator: CorelDRAW 2019 (64 Bit) -->
<?xml-stylesheet href="pata_azul.css" type="text/css"?>
<svg xmlns="http://www.w3.org/2000/svg" xml:space="preserve" width="1in" height="1in" version="1.1" style="shape-rendering:geometricPrecision; text-rendering:geometricPrecision; image-rendering:optimizeQuality; fill-rule:evenodd; clip-rule:evenodd"
viewBox="0 0 1000 1000"
 xmlns:xlink="http://www.w3.org/1999/xlink"
 xmlns:dc="http://purl.org/dc/elements/1.1/"
 xmlns:cc="http://creativecommons.org/ns#"
 xmlns:rdf="http://www.w3.org/1999/02/22-rdf-syntax-ns#"
 xmlns:svg="http://www.w3.org/2000/svg"
 xmlns:sodipodi="http://sodipodi.sourceforge.net/DTD/sodipodi-0.dtd"
 xmlns:inkscape="http://www.inkscape.org/namespaces/inkscape"
 sodipodi:docname="pata.svg"
 inkscape:version="1.0.2-2 (e86c870879, 2021-01-15)">
 <g id="Camada_x0020_1">
  <metadata id="CorelCorpID_0Corel-Layer"/>
  <g id="pata.svg">
   <sodipodi:namedview pagecolor="#ffffff" bordercolor="#666666" borderopacity="1" objecttolerance="10" gridtolerance="10" guidetolerance="10" inkscape:pageopacity="0" inkscape:pageshadow="2" inkscape:window-width="1920" inkscape:window-height="1017" id="namedview12" showgrid="false" fit-margin-top="0" fit-margin-left="0" fit-margin-right="0" fit-margin-bottom="0" inkscape:zoom="15.172525" inkscape:cx="24.847544" inkscape:cy="12.852178" inkscape:window-x="-8" inkscape:window-y="-8" inkscape:window-maximized="1" inkscape:current-layer="g18" inkscape:document-rotation="0"/>
   <g id="g18" inkscape:groupmode="layer" inkscape:label="Image">
    <path id="path22" class="fil0" d="M272.42 998.43c-54.33,-6.54 -91.91,-36.09 -101.53,-79.89 -8.68,-39.46 1.91,-70.65 49.19,-144.81 69.2,-108.56 137.78,-193.97 178.42,-222.2 66.81,-46.42 178.8,-48.14 247.97,-3.82 35.67,22.86 114.34,119.45 180.02,221.02 25.95,40.13 41.55,68.38 48.59,88 7.67,21.35 8.11,51.85 1.04,71.85 -12.14,34.31 -38.15,55.95 -79.74,66.3 -13.91,3.47 -22.75,4.21 -50.35,4.23 -46.97,0.04 -55.63,-2.51 -121.7,-35.9 -8.37,-4.23 -22.97,-9.67 -32.45,-12.1 -15.66,-4 -21.81,-4.41 -66.93,-4.41 -44.91,0 -51.35,0.42 -66.93,4.36 -9.48,2.4 -23.63,7.57 -31.44,11.49 -65.6,32.91 -75.24,36.02 -114.59,36.98 -13.95,0.33 -31.74,-0.15 -39.56,-1.1l0 0.01zm-126.2 -360.75c-24.32,-6.31 -53.57,-24.43 -74.87,-46.39 -54.76,-56.44 -83.19,-145 -66.66,-207.68 13.52,-51.23 53.89,-78.68 100.89,-68.59 59.31,12.71 115.28,70.82 140.32,145.66 9.35,27.96 12.06,47.77 10.78,79.01 -1.4,34.19 -8.22,54.41 -24.88,73.77 -20.06,23.3 -53.1,32.66 -85.57,24.23l0 -0.01zm671.81 -0.26c-28.71,-8.48 -51.19,-35.51 -58.97,-70.87 -3.6,-16.39 -3.58,-55.31 0.05,-74.91 9.3,-50.23 38.41,-102.52 76.35,-137.1 51.28,-46.74 106.31,-54.91 143.89,-21.37 27.58,24.61 39.46,69.7 31.59,119.86 -17.8,113.25 -116.01,207.13 -192.9,184.4l-0 0zm-497.14 -212.73c-29.38,-6.15 -57.57,-27.11 -78.95,-58.67 -69.61,-102.76 -52.16,-275.72 34.56,-342.52 43.69,-33.66 95.01,-30.97 137.42,7.19 43.39,39.05 68.5,105.24 68.63,180.88 0.14,77.46 -22.75,140.57 -65.94,181.85 -19.06,18.22 -38.91,28.84 -60.02,32.1 -16.28,2.52 -20.13,2.43 -35.69,-0.83zm333.91 0.78c-27.74,-4.7 -59.46,-27.42 -80.17,-57.42 -29.62,-42.91 -43.78,-92.87 -43.78,-154.52 0,-77.51 24.69,-143.32 68.6,-182.84 34.41,-30.96 73.91,-38.76 112.33,-22.17 48.05,20.74 85.35,78.73 98.53,153.19 4.04,22.81 4.52,76.56 0.9,98.75 -11.41,69.79 -44.19,126.44 -87.97,152.05 -21.04,12.31 -45.26,16.9 -68.43,12.97l-0.01 0z"/>
   </g>
  </g>
 </g>
</svg>
